<svg width="241" height="32" viewBox="0 0 241 32" fill="none" xmlns="http://www.w3.org/2000/svg">
<g id="Group">
<g id="Group 266">
<g id="logo">
<path id="Vector" d="M237.217 22.267H226.066C220.972 21.7337 219.32 17.4671 219.32 13.2005C219.32 9.20055 221.109 5.46728 226.066 4.93396H228.268H229.507H240.246V1.20068H229.507H228.268H226.341C220.421 1.20068 216.015 5.46728 215.602 11.6005C215.327 12.9338 215.465 14.1338 215.602 15.3338C216.291 21.467 220.146 25.8669 226.341 25.8669H236.666C237.492 25.8669 237.492 27.3336 236.666 27.3336H216.566V30.9335H237.217C242.036 30.9335 242.173 22.267 237.217 22.267Z" fill="#212427"/>
<path id="Vector_2" d="M200.734 1.20068H197.017V30.9335H200.734V1.20068Z" fill="#212427"/>
<path id="Vector_3" d="M166.865 0.533691C157.779 0.533691 150.345 7.60024 150.345 16.2668C150.345 24.9333 157.779 31.9998 166.865 31.9998C175.952 31.9998 183.386 24.9333 183.386 16.2668C183.386 7.46691 175.952 0.533691 166.865 0.533691ZM166.865 28.2666C159.844 28.2666 154.199 23.2 154.199 16.2668C154.199 9.33355 159.844 4.26696 166.865 4.26696C173.887 4.26696 179.669 9.33355 179.669 16.2668C179.669 23.0667 173.887 28.2666 166.865 28.2666Z" fill="#212427"/>
<path id="Vector_4" d="M118.679 30.9335V1.20068H143.461V4.80062H122.396V22.267H130.519V25.8669H122.396V30.9335H118.679Z" fill="#212427"/>
<path id="Vector_5" d="M25.1992 11.6005C24.7862 5.46728 20.3806 1.20068 14.4606 1.20068H0.555542V30.9335H4.27274V25.8669H14.4606C20.6559 25.8669 24.6485 21.467 25.1992 15.3338C25.3369 14.1338 25.4745 12.9338 25.1992 11.6005ZM14.736 22.267H4.27274V4.80062H14.736C19.6922 5.33395 21.482 9.06722 21.482 13.0672C21.6197 17.4671 19.8299 21.7337 14.736 22.267Z" fill="#212427"/>
<path id="Vector_6" d="M96.1008 24.3998C99.818 21.8666 101.608 19.4666 101.608 13.3334C101.608 9.46676 100.644 6.40014 98.5789 4.26684C98.0282 3.60019 97.2022 3.06686 96.3761 2.53354C96.3761 2.53354 96.2384 2.53354 96.2384 2.40021C96.1008 2.26687 95.8254 2.26687 95.6877 2.13354H95.5501C95.4124 2.13354 95.4124 2.00021 95.2747 2.00021C93.3473 1.20023 91.4198 1.06689 90.8692 1.06689H76.8264V30.7997H80.5436V25.7332C81.0943 25.7332 84.6738 25.7332 85.2245 25.7332C92.6589 25.7332 96.5138 27.5998 98.9919 30.7997H103.26C101.883 28.6664 100.231 26.7998 96.1008 24.3998ZM93.485 21.4666C92.1082 21.9999 90.7315 22.1332 89.9054 22.2665H85.2245H80.5436V4.80017H90.0431C90.1808 4.80017 90.1808 4.80017 90.3185 4.80017C90.3185 4.80017 94.311 4.80017 96.3761 7.46679C97.4775 8.8001 97.8905 10.5334 97.8905 12.8V14.8C97.8905 18 96.2384 20.2666 93.485 21.4666Z" fill="#212427"/>
<g id="Group_2">
<g id="Group_3">
<path id="Vector_7" d="M49.017 0L34.2859 30.9328H38.0031L40.3435 25.8662H57.8281L60.1686 30.9328H63.8858L49.017 0ZM41.9956 22.2663L49.017 7.06655L56.0384 22.2663H41.9956Z" fill="#212427"/>
</g>
</g>
</g>
</g>
</g>
</svg>
