<?xml version="1.0" encoding="UTF-8" standalone="no"?>
<svg
   xmlns:dc="http://purl.org/dc/elements/1.1/"
   xmlns:cc="http://creativecommons.org/ns#"
   xmlns:rdf="http://www.w3.org/1999/02/22-rdf-syntax-ns#"
   xmlns:svg="http://www.w3.org/2000/svg"
   xmlns="http://www.w3.org/2000/svg"
   viewBox="0 0 619.5733 289.06668"
   height="289.06668"
   width="619.5733"
   xml:space="preserve"
   id="svg2"
   version="1.1"><metadata
     id="metadata8"><rdf:RDF><cc:Work
         rdf:about=""><dc:format>image/svg+xml</dc:format><dc:type
           rdf:resource="http://purl.org/dc/dcmitype/StillImage" /></cc:Work></rdf:RDF></metadata><defs
     id="defs6" /><g
     transform="matrix(1.3333333,0,0,-1.3333333,0,289.06667)"
     id="g10"><g
       transform="scale(0.1)"
       id="g12"><path
         id="path14"
         style="fill:#e6431c;fill-opacity:1;fill-rule:nonzero;stroke:none"
         d="m 3659.81,1206.52 c 0,-17.74 14.38,-32.12 32.12,-32.12 v 0 c 27.81,0 49.78,4.5 65.9,13.51 16.13,9.01 27.66,21.97 34.61,38.88 6.95,16.91 10.44,37.37 10.44,61.4 0,23.7 -3.49,44.09 -10.44,61.16 -6.95,17.07 -18.48,30.18 -34.61,39.35 -16.12,9.17 -38.09,13.75 -65.9,13.75 v 0 c -17.74,0 -32.12,-14.38 -32.12,-32.12 z m -60.68,-75.45 v 314.23 c 0,4.88 3.95,8.83 8.83,8.83 h 86.82 c 38.87,0 70.87,-6.87 96.01,-20.62 25.12,-13.75 43.77,-33.04 55.94,-57.85 12.16,-24.82 18.26,-53.97 18.26,-87.47 0,-33.51 -6.1,-62.67 -18.26,-87.48 -12.17,-24.82 -30.82,-44.09 -55.94,-57.84 -25.14,-13.75 -57.14,-20.63 -96.01,-20.63 h -86.82 c -4.88,0 -8.83,3.96 -8.83,8.83" /><path
         id="path16"
         style="fill:#e6431c;fill-opacity:1;fill-rule:nonzero;stroke:none"
         d="m 3914.05,1129 v 314.23 c 0,4.87 3.96,8.83 8.83,8.83 h 199.02 c 4.87,0 8.83,-3.96 8.83,-8.83 v -31.18 c 0,-4.87 -3.96,-8.83 -8.83,-8.83 h -101.65 c -25.14,0 -45.51,-20.38 -45.51,-45.51 v 0 c 0,-25.14 20.37,-45.52 45.51,-45.52 h 87.42 c 4.88,0 8.83,-3.96 8.83,-8.83 v -29.75 c 0,-4.88 -3.95,-8.83 -8.83,-8.83 h -85.05 c -26.45,0 -47.88,-21.44 -47.88,-47.89 v 0 c 0,-26.44 21.43,-47.89 47.88,-47.89 h 99.28 c 4.87,0 8.83,-3.95 8.83,-8.83 V 1129 c 0,-4.88 -3.96,-8.83 -8.83,-8.83 h -199.02 c -4.87,0 -8.83,3.95 -8.83,8.83" /><path
         id="path18"
         style="fill:#e6431c;fill-opacity:1;fill-rule:nonzero;stroke:none"
         d="m 3716.66,715.121 c -24.34,0 -45.28,4.27 -62.82,12.801 -17.55,8.539 -31.3,20.308 -41.25,35.328 -6.54,9.859 -11.28,20.57 -14.2,32.141 -2.42,9.558 5.04,18.82 14.91,18.82 h 30.46 c 6.18,0 11.43,-4.012 13.69,-9.762 3.67,-9.34 9.66,-17.379 17.97,-24.14 11.05,-9 24.8,-13.508 41.24,-13.508 17.7,0 32.16,6.48 43.38,19.437 11.22,12.961 16.83,29.082 16.83,48.364 0,19.91 -5.61,35.718 -16.83,47.41 -11.22,11.687 -25.36,17.547 -42.43,17.547 -14.23,0 -26.55,-3.489 -36.99,-10.438 -7.79,-5.199 -13.92,-11.371 -18.36,-18.519 -2.86,-4.602 -7.74,-7.551 -13.16,-7.551 h -31.33 c -9.35,0 -16.5,8.308 -15.11,17.539 l 23.86,159.1 c 1.12,7.47 7.55,13.01 15.11,13.01 h 155.52 c 8.44,0 15.28,-6.84 15.28,-15.28 v -22.55 c 0,-8.43 -6.84,-15.268 -15.28,-15.268 h -81.8 c -24.04,0 -44.71,-17 -49.37,-40.571 v 0 c -2.42,-12.242 9.74,-22.25 21.28,-17.511 v 0 c 12.02,4.89 25.45,7.339 40.31,7.339 23.7,0 43.46,-5.289 59.26,-15.879 15.8,-10.589 27.82,-24.5 36.04,-41.718 8.21,-17.231 12.32,-35.961 12.32,-56.192 0,-23.07 -4.97,-43.609 -14.94,-61.629 -9.95,-18.019 -23.86,-32.242 -41.71,-42.671 -17.87,-10.43 -38.5,-15.649 -61.88,-15.649" /><path
         id="path20"
         style="fill:#e6431c;fill-opacity:1;fill-rule:nonzero;stroke:none"
         d="m 4022.39,769.648 c 24.97,0 45.35,10.434 61.16,31.293 15.8,20.86 23.71,49.457 23.71,85.809 0,36.352 -7.91,64.961 -23.71,85.82 -15.81,20.86 -36.19,31.29 -61.16,31.29 -25.29,0 -45.76,-10.43 -61.4,-31.29 -15.65,-20.859 -23.47,-49.468 -23.47,-85.82 0,-36.352 7.82,-64.949 23.47,-85.809 15.64,-20.859 36.11,-31.293 61.4,-31.293 z m 0,-54.527 c -30.67,0 -56.89,7.188 -78.7,21.57 -21.81,14.379 -38.65,34.45 -50.5,60.219 -11.86,25.762 -17.78,55.711 -17.78,89.84 0,33.82 5.92,63.691 17.78,89.609 11.85,25.921 28.69,46.071 50.5,60.451 21.81,14.38 48.03,21.58 78.7,21.58 30.66,0 56.89,-7.2 78.7,-21.58 21.81,-14.38 38.64,-34.53 50.5,-60.451 11.85,-25.918 17.78,-55.789 17.78,-89.609 0,-34.129 -5.93,-64.078 -17.78,-89.84 -11.86,-25.769 -28.69,-45.84 -50.5,-60.219 -21.81,-14.382 -48.04,-21.57 -78.7,-21.57" /><path
         id="path22"
         style="fill:#e6431c;fill-opacity:1;fill-rule:nonzero;stroke:none"
         d="m 3109.11,1025.4 c -13.71,-57.689 -49.67,-104.33 -96.17,-124.771 -27.72,-12.18 -55.68,-18.231 -82.38,-18.231 -31.81,0 -61.82,8.59 -87.49,25.672 -37.23,24.77 -59.37,63.75 -59.63,104.73 -2.84,17.43 -13.66,105.19 42.13,172.61 34.83,42.1 91.06,69.29 143.25,69.29 0.03,0 0.05,0 0.09,0 40.24,-0.02 75.64,-16.08 99.69,-45.22 40.97,-49.64 56.11,-118.46 40.51,-184.08 z m 200.95,450.13 c -91.18,93.55 -246.23,152.01 -386.11,145.35 -87.8,-4.15 -213.58,-35.31 -314.18,-160.2 l -1.78,-2.01 c -49.2,-49.93 -91.37,-116.92 -132.14,-181.71 -67.4,-107.08 -125.61,-199.56 -206.3,-201.59 -0.89,-0.02 -1.8,-0.03 -2.69,-0.03 -101.83,-0.02 -157.5,144.97 -216.43,298.39 -49.99,130.16 -106.65,277.68 -186.93,310.76 -26.29,10.81 -54.7,9.07 -86.84,-5.38 -73.73,-33.13 -129.7,-101.68 -166.37,-203.71 l -16.12,-44.86 c -3.18,-8.86 -15.74,-8.81 -18.85,0.09 l -15.71,45 c -29.92,85.73 -64.81,170.25 -104.55,198.31 -13.29,9.37 -53.4,27.63 -84.77,11.37 -28.54,-14.79 -77.3,-85.2 -77.3,-291.66 0,-317.51 -34.81,-495.861 -109.53,-561.291 -26.44,-23.129 -57.49,-32.507 -92.3,-27.871 -151.078,20.141 -150.93,260.962 -150.785,493.852 l 0.008,20.6 c 0,240.86 -31.926,370.71 -226.028,372.52 -59.187,0.72 -111.332,-44.06 -149.882,-103.24 -57.422,-88.15 -89.121,-241.88 -86.965,-421.76 1.972,-164.32 32.312,-330.659 79.183,-434.101 57.082,-125.98 123.715,-196.918 209.707,-223.25 88.911,-27.218 196.61,-3.808 290.232,22.692 147.04,41.621 197.99,12.539 247.26,-15.571 32.57,-18.589 62.66,-40.101 128.53,-40.101 56.14,0 100.69,54.691 131.07,154.762 l 18.92,62.32 c 3,9.879 17.18,9.289 19.34,-0.801 l 15.02,-69.898 c 0.83,-4.692 19.99,-141.203 153.8,-144.723 69.1,-1.82 87.25,37.07 121.21,140.609 23.19,70.692 47.16,143.774 110.13,162.661 6.1,1.832 12.1,2.711 18,2.711 51.33,0 96.06,-65.79 147.04,-140.75 51.5,-75.719 115.74,-169.989 174.62,-166.809 36.67,1.949 75.57,40.937 115.64,115.879 16.38,30.629 33.62,64.18 51.24,99.75 l 11.53,23.269 c 3.21,6.481 12.03,7.52 16.65,1.95 l 16.59,-19.969 c 112.8,-135.809 335.85,-236.059 593.26,-71.621 162.95,104.101 268.49,268.562 289.57,451.221 17.67,153.19 -28.25,298.56 -125.99,398.84" /></g></g></svg>